<svg xmlns="http://www.w3.org/2000/svg" width="1600" height="1000" viewBox="0 0 1600 1000"><g fill="#d7e6ff"><circle cx="609.6" cy="230.7" r="0.55" opacity="0.80"/><circle cx="924.7" cy="690.1" r="0.8" opacity="0.48"/><circle cx="1170.6" cy="576.4" r="0.8" opacity="0.65"/><circle cx="1342.9" cy="439.4" r="0.55" opacity="0.34"/><circle cx="1157.1" cy="167.5" r="0.8" opacity="0.62"/><circle cx="95.2" cy="784.3" r="0.55" opacity="0.77"/><circle cx="1345.7" cy="215.9" r="0.8" opacity="0.69"/><circle cx="200.0" cy="670.0" r="0.55" opacity="0.80"/><circle cx="1102.2" cy="980.0" r="0.55" opacity="0.44"/><circle cx="991.8" cy="608.2" r="0.55" opacity="0.78"/><circle cx="1354.4" cy="301.4" r="0.55" opacity="0.65"/><circle cx="651.5" cy="663.3" r="0.8" opacity="0.49"/><circle cx="34.7" cy="134.9" r="0.8" opacity="0.69"/><circle cx="681.1" cy="744.4" r="0.8" opacity="0.78"/><circle cx="1048.2" cy="321.9" r="0.55" opacity="0.29"/><circle cx="63.4" cy="862.5" r="1.1" opacity="0.70"/><circle cx="174.9" cy="660.5" r="0.55" opacity="0.78"/><circle cx="1048.7" cy="749.6" r="0.8" opacity="0.50"/><circle cx="1357.4" cy="961.7" r="0.55" opacity="0.51"/><circle cx="1173.5" cy="680.0" r="0.55" opacity="0.52"/><circle cx="1548.2" cy="275.9" r="0.55" opacity="0.66"/><circle cx="443.1" cy="897.4" r="0.55" opacity="0.80"/><circle cx="607.7" cy="885.1" r="0.8" opacity="0.69"/><circle cx="342.9" cy="164.3" r="0.55" opacity="0.36"/><circle cx="1066.5" cy="64.4" r="0.55" opacity="0.59"/><circle cx="248.2" cy="329.1" r="0.55" opacity="0.66"/><circle cx="189.6" cy="997.5" r="0.8" opacity="0.68"/><circle cx="884.1" cy="497.8" r="1.4" opacity="0.79"/><circle cx="1315.1" cy="29.8" r="0.8" opacity="0.82"/><circle cx="1021.3" cy="513.0" r="0.8" opacity="0.36"/><circle cx="1164.3" cy="783.7" r="0.55" opacity="0.56"/><circle cx="952.4" cy="352.0" r="0.8" opacity="0.80"/><circle cx="1449.9" cy="307.8" r="0.55" opacity="0.76"/><circle cx="979.1" cy="829.5" r="1.1" opacity="0.42"/><circle cx="939.8" cy="303.2" r="0.8" opacity="0.66"/><circle cx="382.5" cy="500.1" r="0.8" opacity="0.39"/><circle cx="292.0" cy="474.2" r="0.55" opacity="0.55"/><circle cx="1504.0" cy="826.0" r="0.55" opacity="0.75"/><circle cx="1146.3" cy="708.2" r="0.55" opacity="0.71"/><circle cx="312.7" cy="803.0" r="0.55" opacity="0.47"/><circle cx="275.6" cy="867.6" r="0.55" opacity="0.77"/><circle cx="822.1" cy="148.5" r="0.8" opacity="0.57"/><circle cx="43.3" cy="823.6" r="0.55" opacity="0.26"/><circle cx="1226.2" cy="727.1" r="0.55" opacity="0.36"/><circle cx="843.1" cy="586.4" r="0.8" opacity="0.54"/><circle cx="908.5" cy="720.8" r="0.55" opacity="0.36"/><circle cx="775.1" cy="754.1" r="1.1" opacity="0.76"/><circle cx="702.3" cy="713.7" r="0.55" opacity="0.48"/><circle cx="106.9" cy="835.3" r="1.4" opacity="0.65"/><circle cx="1203.9" cy="372.2" r="0.8" opacity="0.30"/><circle cx="593.0" cy="350.8" r="1.1" opacity="0.35"/><circle cx="254.6" cy="89.4" r="1.1" opacity="0.44"/><circle cx="1444.9" cy="313.0" r="1.1" opacity="0.37"/><circle cx="1444.0" cy="973.7" r="1.1" opacity="0.67"/><circle cx="1434.2" cy="914.3" r="1.1" opacity="0.42"/><circle cx="1359.8" cy="779.7" r="0.55" opacity="0.35"/><circle cx="1439.4" cy="472.4" r="0.8" opacity="0.78"/><circle cx="774.2" cy="252.5" r="0.8" opacity="0.57"/><circle cx="435.8" cy="692.0" r="1.1" opacity="0.40"/><circle cx="1300.4" cy="753.7" r="0.8" opacity="0.37"/><circle cx="1063.9" cy="281.4" r="0.55" opacity="0.76"/><circle cx="433.0" cy="92.5" r="1.1" opacity="0.85"/><circle cx="488.6" cy="405.0" r="0.8" opacity="0.70"/><circle cx="19.5" cy="648.0" r="0.55" opacity="0.81"/><circle cx="663.4" cy="944.3" r="0.8" opacity="0.64"/><circle cx="60.6" cy="202.7" r="0.55" opacity="0.47"/><circle cx="276.9" cy="421.1" r="0.55" opacity="0.59"/><circle cx="1540.7" cy="857.2" r="0.8" opacity="0.84"/><circle cx="1165.6" cy="634.2" r="0.8" opacity="0.30"/><circle cx="1429.1" cy="896.2" r="1.1" opacity="0.66"/><circle cx="1300.3" cy="958.6" r="1.4" opacity="0.71"/><circle cx="26.0" cy="947.3" r="0.8" opacity="0.52"/><circle cx="689.6" cy="270.4" r="0.55" opacity="0.62"/><circle cx="988.0" cy="86.4" r="1.1" opacity="0.79"/><circle cx="1383.5" cy="537.4" r="0.55" opacity="0.53"/><circle cx="593.0" cy="955.6" r="1.1" opacity="0.79"/><circle cx="831.7" cy="511.0" r="0.8" opacity="0.42"/><circle cx="294.6" cy="984.9" r="0.55" opacity="0.41"/><circle cx="787.7" cy="88.3" r="0.8" opacity="0.35"/><circle cx="1326.6" cy="81.9" r="1.1" opacity="0.41"/><circle cx="1260.8" cy="800.7" r="1.1" opacity="0.35"/><circle cx="1575.5" cy="148.0" r="0.55" opacity="0.25"/><circle cx="790.4" cy="82.0" r="0.8" opacity="0.81"/><circle cx="1250.8" cy="647.7" r="0.55" opacity="0.84"/><circle cx="583.6" cy="949.5" r="0.55" opacity="0.43"/><circle cx="1516.3" cy="747.0" r="0.55" opacity="0.52"/><circle cx="867.8" cy="251.9" r="0.55" opacity="0.30"/><circle cx="815.1" cy="415.9" r="0.55" opacity="0.54"/><circle cx="554.5" cy="386.3" r="0.8" opacity="0.34"/><circle cx="152.7" cy="446.9" r="0.55" opacity="0.54"/><circle cx="1375.6" cy="946.2" r="1.1" opacity="0.80"/><circle cx="369.0" cy="346.3" r="0.55" opacity="0.42"/><circle cx="417.0" cy="239.8" r="0.55" opacity="0.81"/><circle cx="824.4" cy="899.7" r="0.8" opacity="0.70"/><circle cx="1072.1" cy="592.6" r="1.1" opacity="0.61"/><circle cx="805.6" cy="229.4" r="0.55" opacity="0.51"/><circle cx="649.9" cy="130.6" r="1.1" opacity="0.26"/><circle cx="706.2" cy="246.7" r="0.55" opacity="0.75"/><circle cx="1542.1" cy="398.5" r="0.8" opacity="0.79"/><circle cx="464.4" cy="396.7" r="0.55" opacity="0.75"/><circle cx="485.2" cy="896.5" r="0.55" opacity="0.66"/><circle cx="1009.3" cy="34.0" r="0.55" opacity="0.75"/><circle cx="643.0" cy="57.2" r="0.8" opacity="0.57"/><circle cx="751.2" cy="421.0" r="1.1" opacity="0.65"/><circle cx="710.6" cy="446.8" r="0.8" opacity="0.39"/><circle cx="771.3" cy="760.4" r="0.55" opacity="0.34"/><circle cx="81.3" cy="669.8" r="1.1" opacity="0.65"/><circle cx="991.9" cy="31.7" r="0.55" opacity="0.53"/><circle cx="538.9" cy="250.3" r="0.55" opacity="0.39"/><circle cx="112.0" cy="571.1" r="0.55" opacity="0.51"/><circle cx="642.6" cy="810.3" r="0.8" opacity="0.53"/><circle cx="9.7" cy="711.7" r="0.8" opacity="0.63"/><circle cx="1584.9" cy="491.8" r="0.55" opacity="0.57"/><circle cx="167.6" cy="626.5" r="0.55" opacity="0.65"/><circle cx="979.0" cy="684.8" r="0.55" opacity="0.68"/><circle cx="1508.8" cy="985.7" r="0.8" opacity="0.34"/><circle cx="1238.8" cy="177.2" r="1.4" opacity="0.27"/><circle cx="26.8" cy="401.9" r="0.55" opacity="0.82"/><circle cx="1488.5" cy="259.7" r="1.1" opacity="0.46"/><circle cx="1309.0" cy="124.6" r="1.1" opacity="0.52"/><circle cx="377.6" cy="444.9" r="0.55" opacity="0.27"/><circle cx="759.6" cy="596.2" r="1.4" opacity="0.56"/><circle cx="537.6" cy="261.4" r="0.55" opacity="0.80"/><circle cx="1119.1" cy="264.4" r="0.8" opacity="0.66"/><circle cx="1022.7" cy="452.1" r="1.1" opacity="0.81"/><circle cx="1213.1" cy="185.7" r="0.55" opacity="0.64"/><circle cx="1522.8" cy="505.1" r="0.8" opacity="0.29"/><circle cx="103.0" cy="268.6" r="0.8" opacity="0.38"/><circle cx="1207.8" cy="642.9" r="0.55" opacity="0.56"/><circle cx="1335.1" cy="31.3" r="0.8" opacity="0.70"/><circle cx="1546.4" cy="332.4" r="0.8" opacity="0.73"/><circle cx="485.0" cy="775.2" r="0.8" opacity="0.82"/><circle cx="663.1" cy="109.2" r="0.8" opacity="0.66"/><circle cx="1462.1" cy="756.3" r="0.8" opacity="0.76"/><circle cx="1360.9" cy="612.1" r="0.55" opacity="0.26"/><circle cx="937.9" cy="13.3" r="0.55" opacity="0.84"/><circle cx="413.3" cy="689.0" r="0.8" opacity="0.44"/><circle cx="962.7" cy="885.7" r="0.8" opacity="0.45"/><circle cx="1591.4" cy="670.8" r="0.55" opacity="0.73"/><circle cx="1254.0" cy="877.4" r="1.1" opacity="0.73"/><circle cx="625.6" cy="756.0" r="0.8" opacity="0.74"/><circle cx="344.2" cy="986.4" r="0.8" opacity="0.80"/><circle cx="827.2" cy="780.5" r="0.8" opacity="0.42"/><circle cx="784.8" cy="821.6" r="0.55" opacity="0.80"/><circle cx="1170.8" cy="788.0" r="0.8" opacity="0.68"/><circle cx="1016.7" cy="415.3" r="0.55" opacity="0.59"/><circle cx="1104.5" cy="554.7" r="0.55" opacity="0.58"/><circle cx="167.5" cy="644.2" r="0.55" opacity="0.33"/><circle cx="127.2" cy="952.6" r="1.1" opacity="0.63"/><circle cx="1500.2" cy="209.5" r="0.8" opacity="0.53"/><circle cx="172.3" cy="577.4" r="0.55" opacity="0.42"/><circle cx="228.2" cy="245.6" r="1.1" opacity="0.55"/><circle cx="879.2" cy="144.4" r="0.55" opacity="0.31"/><circle cx="1122.2" cy="578.6" r="0.8" opacity="0.60"/><circle cx="401.7" cy="398.5" r="0.55" opacity="0.81"/><circle cx="1124.7" cy="832.4" r="0.8" opacity="0.83"/><circle cx="1223.3" cy="0.3" r="0.55" opacity="0.27"/><circle cx="1429.6" cy="210.0" r="0.8" opacity="0.60"/><circle cx="358.5" cy="276.0" r="1.1" opacity="0.36"/><circle cx="1330.8" cy="468.8" r="0.8" opacity="0.49"/><circle cx="1085.6" cy="704.5" r="0.55" opacity="0.43"/><circle cx="687.3" cy="745.5" r="0.55" opacity="0.37"/><circle cx="561.2" cy="697.1" r="0.8" opacity="0.38"/><circle cx="1405.9" cy="574.8" r="1.1" opacity="0.48"/><circle cx="1520.7" cy="581.0" r="0.55" opacity="0.34"/><circle cx="1280.8" cy="174.3" r="1.1" opacity="0.74"/><circle cx="211.6" cy="727.8" r="0.8" opacity="0.31"/><circle cx="1214.8" cy="949.7" r="0.55" opacity="0.57"/><circle cx="656.8" cy="238.6" r="0.55" opacity="0.65"/><circle cx="1548.0" cy="126.9" r="0.55" opacity="0.57"/><circle cx="424.5" cy="868.2" r="0.55" opacity="0.26"/><circle cx="496.5" cy="410.4" r="0.55" opacity="0.50"/><circle cx="455.8" cy="963.2" r="0.55" opacity="0.38"/><circle cx="1311.8" cy="201.4" r="0.55" opacity="0.48"/><circle cx="1011.5" cy="824.4" r="0.8" opacity="0.36"/><circle cx="1491.2" cy="175.0" r="1.1" opacity="0.77"/><circle cx="184.6" cy="378.6" r="0.55" opacity="0.53"/><circle cx="1251.6" cy="802.9" r="0.8" opacity="0.27"/><circle cx="463.5" cy="923.1" r="0.8" opacity="0.71"/><circle cx="278.4" cy="155.9" r="0.8" opacity="0.62"/><circle cx="199.4" cy="874.7" r="0.8" opacity="0.81"/><circle cx="1450.2" cy="399.9" r="0.55" opacity="0.75"/><circle cx="795.9" cy="600.4" r="0.8" opacity="0.84"/><circle cx="823.7" cy="458.6" r="1.1" opacity="0.30"/><circle cx="701.4" cy="219.4" r="0.8" opacity="0.74"/><circle cx="681.5" cy="207.6" r="0.55" opacity="0.79"/><circle cx="936.7" cy="935.4" r="0.55" opacity="0.42"/><circle cx="287.6" cy="637.7" r="0.8" opacity="0.76"/><circle cx="942.6" cy="334.3" r="0.55" opacity="0.72"/><circle cx="1517.3" cy="328.1" r="0.55" opacity="0.57"/><circle cx="600.5" cy="744.6" r="0.8" opacity="0.54"/><circle cx="604.2" cy="250.7" r="1.1" opacity="0.82"/><circle cx="335.7" cy="375.9" r="0.8" opacity="0.46"/><circle cx="706.5" cy="564.2" r="0.55" opacity="0.48"/><circle cx="1149.2" cy="939.1" r="0.55" opacity="0.78"/><circle cx="139.3" cy="658.1" r="0.55" opacity="0.58"/><circle cx="366.0" cy="808.8" r="0.55" opacity="0.56"/><circle cx="1537.4" cy="531.5" r="0.55" opacity="0.64"/><circle cx="1270.5" cy="685.5" r="0.55" opacity="0.37"/><circle cx="1252.2" cy="503.5" r="1.1" opacity="0.45"/><circle cx="490.7" cy="466.0" r="1.4" opacity="0.72"/><circle cx="471.1" cy="692.4" r="1.1" opacity="0.28"/><circle cx="1194.4" cy="474.7" r="1.1" opacity="0.70"/><circle cx="585.6" cy="81.2" r="0.55" opacity="0.48"/><circle cx="326.1" cy="687.9" r="1.1" opacity="0.52"/><circle cx="185.3" cy="559.4" r="0.55" opacity="0.28"/><circle cx="155.5" cy="388.8" r="0.55" opacity="0.33"/><circle cx="1513.3" cy="533.8" r="0.55" opacity="0.27"/><circle cx="458.3" cy="323.5" r="1.1" opacity="0.36"/><circle cx="1472.4" cy="502.6" r="1.1" opacity="0.58"/><circle cx="1535.2" cy="960.0" r="0.8" opacity="0.45"/><circle cx="475.6" cy="163.6" r="0.55" opacity="0.62"/><circle cx="667.0" cy="540.1" r="1.1" opacity="0.69"/><circle cx="1494.1" cy="765.1" r="0.55" opacity="0.28"/><circle cx="1120.0" cy="146.7" r="0.8" opacity="0.30"/><circle cx="926.9" cy="527.8" r="0.8" opacity="0.74"/><circle cx="1119.4" cy="220.9" r="0.8" opacity="0.50"/><circle cx="619.3" cy="227.0" r="0.55" opacity="0.62"/><circle cx="99.5" cy="429.1" r="0.8" opacity="0.53"/><circle cx="1106.4" cy="805.0" r="0.8" opacity="0.35"/><circle cx="283.2" cy="933.2" r="0.8" opacity="0.54"/><circle cx="350.7" cy="630.1" r="0.55" opacity="0.59"/><circle cx="885.6" cy="911.7" r="0.8" opacity="0.80"/><circle cx="1397.3" cy="91.7" r="0.8" opacity="0.41"/><circle cx="546.4" cy="513.9" r="0.8" opacity="0.60"/><circle cx="701.4" cy="107.6" r="1.4" opacity="0.27"/><circle cx="1514.3" cy="987.5" r="0.8" opacity="0.38"/><circle cx="1122.8" cy="333.8" r="0.55" opacity="0.76"/><circle cx="1160.7" cy="24.2" r="1.1" opacity="0.49"/><circle cx="477.7" cy="388.0" r="0.55" opacity="0.51"/><circle cx="1344.2" cy="978.8" r="1.1" opacity="0.64"/><circle cx="680.6" cy="477.7" r="0.55" opacity="0.40"/><circle cx="74.5" cy="775.6" r="0.55" opacity="0.36"/><circle cx="682.1" cy="812.1" r="0.55" opacity="0.70"/><circle cx="478.4" cy="403.6" r="0.8" opacity="0.84"/><circle cx="1591.8" cy="264.5" r="0.8" opacity="0.45"/><circle cx="524.5" cy="823.2" r="0.8" opacity="0.57"/><circle cx="487.1" cy="376.9" r="0.8" opacity="0.74"/><circle cx="425.6" cy="568.2" r="0.8" opacity="0.28"/><circle cx="364.1" cy="763.2" r="0.55" opacity="0.82"/><circle cx="693.8" cy="632.0" r="0.55" opacity="0.52"/><circle cx="747.2" cy="778.9" r="0.8" opacity="0.34"/><circle cx="126.9" cy="260.9" r="0.8" opacity="0.32"/><circle cx="248.4" cy="350.4" r="0.55" opacity="0.61"/><circle cx="354.6" cy="205.1" r="0.8" opacity="0.62"/><circle cx="1183.4" cy="145.3" r="0.8" opacity="0.48"/><circle cx="756.0" cy="214.2" r="1.1" opacity="0.74"/><circle cx="738.5" cy="361.8" r="0.55" opacity="0.55"/><circle cx="483.8" cy="438.6" r="0.8" opacity="0.76"/><circle cx="1366.2" cy="64.8" r="0.8" opacity="0.48"/><circle cx="186.4" cy="455.7" r="1.1" opacity="0.49"/><circle cx="486.0" cy="534.2" r="0.8" opacity="0.80"/><circle cx="1451.2" cy="981.5" r="0.55" opacity="0.69"/><circle cx="779.5" cy="586.9" r="1.1" opacity="0.43"/><circle cx="7.5" cy="252.8" r="1.1" opacity="0.81"/><circle cx="741.6" cy="134.5" r="0.8" opacity="0.44"/><circle cx="1405.2" cy="506.1" r="0.55" opacity="0.29"/><circle cx="427.6" cy="338.2" r="0.55" opacity="0.70"/><circle cx="1355.3" cy="653.0" r="0.55" opacity="0.66"/><circle cx="71.5" cy="509.5" r="0.8" opacity="0.62"/><circle cx="428.0" cy="867.0" r="0.55" opacity="0.52"/><circle cx="193.2" cy="518.7" r="0.55" opacity="0.57"/><circle cx="330.2" cy="951.5" r="0.55" opacity="0.39"/><circle cx="1062.9" cy="139.2" r="0.8" opacity="0.52"/><circle cx="1510.7" cy="740.1" r="1.1" opacity="0.84"/><circle cx="959.8" cy="669.1" r="0.8" opacity="0.74"/><circle cx="1389.6" cy="874.3" r="1.1" opacity="0.81"/><circle cx="271.2" cy="772.7" r="0.8" opacity="0.79"/><circle cx="577.9" cy="763.7" r="0.55" opacity="0.48"/><circle cx="363.7" cy="242.2" r="0.55" opacity="0.56"/><circle cx="222.3" cy="54.0" r="0.8" opacity="0.72"/><circle cx="525.3" cy="41.6" r="1.1" opacity="0.46"/><circle cx="619.8" cy="902.1" r="0.55" opacity="0.64"/><circle cx="586.4" cy="603.1" r="0.8" opacity="0.37"/><circle cx="1504.3" cy="525.1" r="0.55" opacity="0.53"/><circle cx="960.0" cy="916.4" r="0.55" opacity="0.32"/><circle cx="748.2" cy="848.3" r="0.55" opacity="0.80"/><circle cx="791.7" cy="472.8" r="0.8" opacity="0.69"/><circle cx="1047.0" cy="924.0" r="0.8" opacity="0.44"/><circle cx="649.6" cy="414.9" r="0.55" opacity="0.43"/><circle cx="600.0" cy="944.8" r="1.1" opacity="0.69"/><circle cx="1138.5" cy="257.7" r="0.55" opacity="0.37"/><circle cx="1310.1" cy="680.4" r="0.8" opacity="0.26"/><circle cx="1166.5" cy="794.4" r="0.8" opacity="0.70"/><circle cx="1300.9" cy="636.9" r="0.55" opacity="0.59"/><circle cx="1406.0" cy="98.3" r="1.1" opacity="0.46"/><circle cx="1104.5" cy="122.4" r="0.8" opacity="0.85"/><circle cx="936.3" cy="480.3" r="0.55" opacity="0.47"/><circle cx="1053.2" cy="919.0" r="0.55" opacity="0.45"/><circle cx="596.6" cy="289.8" r="1.1" opacity="0.74"/><circle cx="833.5" cy="19.4" r="1.1" opacity="0.69"/><circle cx="1411.1" cy="302.9" r="0.55" opacity="0.50"/><circle cx="648.6" cy="454.8" r="1.4" opacity="0.76"/><circle cx="111.8" cy="431.9" r="0.55" opacity="0.54"/><circle cx="723.5" cy="665.8" r="1.1" opacity="0.54"/><circle cx="1396.0" cy="192.6" r="0.55" opacity="0.32"/><circle cx="1316.5" cy="814.2" r="0.8" opacity="0.42"/><circle cx="545.9" cy="42.5" r="0.8" opacity="0.38"/><circle cx="363.8" cy="283.0" r="0.8" opacity="0.42"/><circle cx="1499.6" cy="580.3" r="0.55" opacity="0.38"/><circle cx="1593.4" cy="499.5" r="0.8" opacity="0.31"/><circle cx="1270.7" cy="372.0" r="0.55" opacity="0.33"/><circle cx="506.8" cy="89.4" r="0.55" opacity="0.64"/><circle cx="314.3" cy="983.5" r="0.8" opacity="0.64"/><circle cx="979.0" cy="517.0" r="0.8" opacity="0.41"/><circle cx="549.9" cy="223.0" r="0.8" opacity="0.59"/><circle cx="1303.8" cy="704.2" r="1.1" opacity="0.49"/><circle cx="1387.5" cy="158.8" r="0.8" opacity="0.63"/><circle cx="39.4" cy="255.5" r="0.55" opacity="0.69"/><circle cx="663.4" cy="986.6" r="0.8" opacity="0.75"/><circle cx="1572.4" cy="522.4" r="0.8" opacity="0.31"/><circle cx="906.8" cy="257.1" r="0.55" opacity="0.57"/><circle cx="291.4" cy="631.7" r="0.55" opacity="0.74"/><circle cx="1594.6" cy="302.6" r="0.55" opacity="0.31"/><circle cx="75.3" cy="121.7" r="0.55" opacity="0.66"/><circle cx="1161.1" cy="435.5" r="0.55" opacity="0.46"/><circle cx="302.3" cy="961.6" r="0.55" opacity="0.50"/><circle cx="48.4" cy="543.8" r="0.8" opacity="0.30"/><circle cx="1000.5" cy="501.0" r="0.8" opacity="0.58"/><circle cx="518.7" cy="667.4" r="0.8" opacity="0.77"/><circle cx="1497.6" cy="880.1" r="0.8" opacity="0.43"/><circle cx="132.7" cy="851.9" r="0.55" opacity="0.77"/><circle cx="277.8" cy="282.5" r="0.8" opacity="0.35"/><circle cx="614.0" cy="476.6" r="0.55" opacity="0.33"/><circle cx="385.3" cy="628.9" r="0.8" opacity="0.33"/><circle cx="1582.3" cy="233.7" r="0.55" opacity="0.45"/><circle cx="182.8" cy="374.1" r="0.55" opacity="0.40"/><circle cx="1307.0" cy="161.7" r="0.8" opacity="0.53"/><circle cx="1172.6" cy="159.8" r="1.1" opacity="0.46"/><circle cx="1508.2" cy="221.5" r="0.55" opacity="0.76"/><circle cx="689.2" cy="688.4" r="1.1" opacity="0.67"/><circle cx="1169.9" cy="819.6" r="0.55" opacity="0.39"/><circle cx="1466.5" cy="791.2" r="0.55" opacity="0.78"/><circle cx="1199.4" cy="392.7" r="0.55" opacity="0.46"/><circle cx="1303.1" cy="268.2" r="0.55" opacity="0.61"/><circle cx="819.1" cy="500.7" r="0.55" opacity="0.64"/><circle cx="443.9" cy="960.9" r="0.55" opacity="0.84"/><circle cx="717.4" cy="87.3" r="0.55" opacity="0.47"/><circle cx="347.6" cy="582.3" r="0.8" opacity="0.65"/><circle cx="888.1" cy="184.8" r="1.1" opacity="0.53"/><circle cx="26.3" cy="715.3" r="1.4" opacity="0.75"/><circle cx="1255.5" cy="687.3" r="0.55" opacity="0.36"/><circle cx="1326.0" cy="767.5" r="0.8" opacity="0.42"/><circle cx="978.3" cy="923.7" r="0.55" opacity="0.43"/><circle cx="907.2" cy="267.8" r="0.8" opacity="0.37"/><circle cx="226.2" cy="206.3" r="0.55" opacity="0.50"/><circle cx="840.4" cy="955.4" r="0.8" opacity="0.80"/><circle cx="129.5" cy="368.2" r="1.1" opacity="0.44"/><circle cx="26.8" cy="82.3" r="0.8" opacity="0.65"/><circle cx="1020.5" cy="832.0" r="1.1" opacity="0.76"/><circle cx="1204.4" cy="296.3" r="0.8" opacity="0.65"/><circle cx="726.2" cy="90.9" r="0.55" opacity="0.49"/><circle cx="477.9" cy="71.5" r="0.8" opacity="0.39"/><circle cx="995.5" cy="340.2" r="0.8" opacity="0.74"/><circle cx="861.7" cy="331.1" r="0.8" opacity="0.42"/><circle cx="1197.4" cy="952.3" r="1.1" opacity="0.60"/><circle cx="1454.9" cy="544.0" r="0.8" opacity="0.26"/><circle cx="607.3" cy="300.1" r="0.55" opacity="0.28"/><circle cx="950.2" cy="181.9" r="0.55" opacity="0.78"/><circle cx="99.7" cy="301.9" r="0.8" opacity="0.68"/><circle cx="625.3" cy="36.7" r="0.8" opacity="0.30"/><circle cx="373.5" cy="581.4" r="0.55" opacity="0.28"/><circle cx="1480.0" cy="97.6" r="0.8" opacity="0.72"/><circle cx="1345.5" cy="8.9" r="0.55" opacity="0.80"/><circle cx="748.2" cy="535.5" r="0.55" opacity="0.40"/><circle cx="19.6" cy="494.2" r="0.55" opacity="0.71"/><circle cx="1269.4" cy="292.3" r="1.1" opacity="0.45"/><circle cx="175.5" cy="282.6" r="1.1" opacity="0.57"/><circle cx="1505.4" cy="238.4" r="0.8" opacity="0.42"/><circle cx="1109.9" cy="864.3" r="0.8" opacity="0.79"/><circle cx="978.2" cy="517.4" r="0.8" opacity="0.47"/><circle cx="484.5" cy="241.6" r="0.55" opacity="0.31"/><circle cx="878.4" cy="675.4" r="0.55" opacity="0.83"/><circle cx="789.2" cy="134.0" r="1.4" opacity="0.41"/><circle cx="1594.0" cy="131.2" r="1.1" opacity="0.50"/><circle cx="23.8" cy="186.8" r="0.8" opacity="0.40"/><circle cx="851.8" cy="472.9" r="0.55" opacity="0.48"/><circle cx="1445.0" cy="177.2" r="0.8" opacity="0.84"/><circle cx="1029.4" cy="165.0" r="0.8" opacity="0.31"/><circle cx="659.2" cy="968.1" r="0.55" opacity="0.34"/><circle cx="1205.1" cy="82.8" r="1.1" opacity="0.48"/><circle cx="984.8" cy="943.6" r="0.55" opacity="0.63"/><circle cx="386.8" cy="824.1" r="0.8" opacity="0.60"/><circle cx="1255.7" cy="330.4" r="0.8" opacity="0.40"/><circle cx="719.5" cy="627.0" r="1.4" opacity="0.76"/><circle cx="1138.3" cy="788.9" r="0.8" opacity="0.73"/><circle cx="341.4" cy="638.2" r="1.1" opacity="0.37"/><circle cx="812.9" cy="346.9" r="1.1" opacity="0.52"/><circle cx="387.2" cy="407.0" r="0.55" opacity="0.84"/><circle cx="301.2" cy="288.5" r="1.1" opacity="0.56"/><circle cx="193.2" cy="324.6" r="1.4" opacity="0.47"/><circle cx="1456.7" cy="925.6" r="0.8" opacity="0.52"/><circle cx="1018.3" cy="7.4" r="0.55" opacity="0.67"/><circle cx="1315.9" cy="666.6" r="1.1" opacity="0.49"/><circle cx="418.7" cy="951.3" r="0.8" opacity="0.30"/><circle cx="1163.7" cy="503.9" r="0.8" opacity="0.33"/><circle cx="1191.4" cy="987.7" r="0.55" opacity="0.76"/><circle cx="1058.2" cy="770.0" r="0.55" opacity="0.38"/><circle cx="1153.7" cy="779.1" r="0.55" opacity="0.27"/><circle cx="609.8" cy="729.7" r="0.55" opacity="0.77"/><circle cx="1346.7" cy="47.1" r="0.55" opacity="0.34"/><circle cx="517.2" cy="423.4" r="0.55" opacity="0.81"/><circle cx="346.3" cy="246.4" r="0.55" opacity="0.47"/><circle cx="307.7" cy="312.1" r="1.1" opacity="0.59"/><circle cx="714.2" cy="246.1" r="0.8" opacity="0.72"/><circle cx="1041.0" cy="188.4" r="0.8" opacity="0.32"/><circle cx="773.1" cy="318.3" r="0.55" opacity="0.66"/><circle cx="364.7" cy="549.2" r="1.1" opacity="0.52"/><circle cx="1137.4" cy="357.5" r="0.8" opacity="0.49"/><circle cx="321.4" cy="863.2" r="0.8" opacity="0.40"/><circle cx="981.4" cy="440.1" r="0.8" opacity="0.34"/><circle cx="436.7" cy="675.6" r="0.8" opacity="0.37"/><circle cx="770.2" cy="311.1" r="1.1" opacity="0.48"/><circle cx="1264.9" cy="614.7" r="0.8" opacity="0.79"/><circle cx="1071.2" cy="497.4" r="0.8" opacity="0.44"/><circle cx="905.7" cy="566.9" r="0.8" opacity="0.78"/><circle cx="1535.9" cy="1.5" r="0.55" opacity="0.67"/><circle cx="1590.0" cy="857.0" r="0.8" opacity="0.68"/><circle cx="30.5" cy="189.9" r="0.8" opacity="0.41"/><circle cx="1058.8" cy="795.4" r="0.55" opacity="0.55"/><circle cx="1311.6" cy="594.9" r="0.8" opacity="0.82"/><circle cx="1126.2" cy="606.2" r="0.55" opacity="0.65"/><circle cx="655.0" cy="472.3" r="0.55" opacity="0.68"/><circle cx="189.6" cy="354.6" r="0.55" opacity="0.27"/><circle cx="1178.8" cy="722.1" r="0.55" opacity="0.52"/><circle cx="1368.5" cy="621.1" r="0.55" opacity="0.27"/><circle cx="1134.2" cy="515.8" r="0.8" opacity="0.68"/><circle cx="445.9" cy="996.2" r="0.55" opacity="0.27"/><circle cx="1279.9" cy="791.2" r="1.1" opacity="0.54"/><circle cx="1179.1" cy="601.6" r="0.55" opacity="0.50"/><circle cx="595.0" cy="274.4" r="0.55" opacity="0.60"/><circle cx="237.0" cy="458.2" r="0.55" opacity="0.75"/><circle cx="1321.2" cy="62.9" r="1.1" opacity="0.68"/><circle cx="138.8" cy="457.6" r="0.8" opacity="0.39"/><circle cx="754.9" cy="886.6" r="0.8" opacity="0.51"/><circle cx="64.4" cy="539.6" r="0.55" opacity="0.66"/><circle cx="424.2" cy="242.9" r="1.1" opacity="0.51"/><circle cx="110.3" cy="467.4" r="0.55" opacity="0.25"/><circle cx="463.2" cy="805.9" r="0.8" opacity="0.69"/><circle cx="399.4" cy="166.7" r="0.55" opacity="0.45"/><circle cx="1386.4" cy="722.4" r="0.8" opacity="0.42"/><circle cx="982.0" cy="594.8" r="0.8" opacity="0.46"/><circle cx="390.5" cy="667.3" r="0.8" opacity="0.41"/><circle cx="170.6" cy="892.3" r="0.55" opacity="0.64"/><circle cx="12.5" cy="888.7" r="0.55" opacity="0.53"/><circle cx="1498.5" cy="874.9" r="0.55" opacity="0.57"/><circle cx="1408.2" cy="880.9" r="0.8" opacity="0.78"/><circle cx="193.3" cy="984.2" r="0.8" opacity="0.38"/><circle cx="1519.5" cy="700.4" r="0.55" opacity="0.37"/><circle cx="442.0" cy="845.2" r="1.1" opacity="0.51"/><circle cx="1388.8" cy="218.8" r="1.1" opacity="0.85"/><circle cx="282.2" cy="170.1" r="0.55" opacity="0.39"/><circle cx="451.0" cy="359.3" r="0.8" opacity="0.82"/><circle cx="481.2" cy="52.6" r="0.8" opacity="0.82"/><circle cx="835.3" cy="124.0" r="0.8" opacity="0.60"/><circle cx="1436.6" cy="778.6" r="0.8" opacity="0.80"/><circle cx="1172.6" cy="208.1" r="0.8" opacity="0.27"/><circle cx="1506.7" cy="554.6" r="0.55" opacity="0.26"/><circle cx="68.9" cy="735.9" r="1.1" opacity="0.70"/><circle cx="185.4" cy="752.2" r="0.8" opacity="0.27"/><circle cx="1041.8" cy="822.5" r="0.55" opacity="0.60"/><circle cx="76.9" cy="760.6" r="0.55" opacity="0.33"/><circle cx="1341.8" cy="993.9" r="1.1" opacity="0.59"/><circle cx="641.7" cy="511.5" r="0.55" opacity="0.31"/><circle cx="1523.0" cy="916.9" r="0.55" opacity="0.83"/><circle cx="386.5" cy="710.9" r="0.8" opacity="0.50"/><circle cx="590.6" cy="244.3" r="1.1" opacity="0.30"/><circle cx="219.0" cy="848.0" r="0.8" opacity="0.75"/><circle cx="627.7" cy="217.4" r="0.8" opacity="0.75"/><circle cx="180.0" cy="623.5" r="1.1" opacity="0.31"/><circle cx="929.8" cy="425.9" r="0.55" opacity="0.35"/><circle cx="24.2" cy="403.5" r="0.8" opacity="0.43"/><circle cx="1019.1" cy="713.1" r="0.8" opacity="0.52"/><circle cx="690.7" cy="940.4" r="0.8" opacity="0.49"/><circle cx="1557.2" cy="122.4" r="0.55" opacity="0.30"/><circle cx="444.0" cy="152.7" r="0.55" opacity="0.25"/><circle cx="1305.0" cy="39.0" r="0.55" opacity="0.40"/><circle cx="58.8" cy="596.9" r="0.8" opacity="0.46"/><circle cx="1380.5" cy="647.7" r="0.55" opacity="0.47"/><circle cx="1228.3" cy="13.5" r="1.1" opacity="0.72"/><circle cx="1309.6" cy="325.3" r="0.55" opacity="0.32"/><circle cx="1190.8" cy="974.1" r="0.8" opacity="0.33"/><circle cx="802.1" cy="662.7" r="0.8" opacity="0.72"/><circle cx="679.8" cy="378.5" r="0.8" opacity="0.37"/><circle cx="818.0" cy="105.4" r="0.8" opacity="0.63"/><circle cx="352.3" cy="0.6" r="0.55" opacity="0.43"/><circle cx="160.8" cy="773.4" r="0.55" opacity="0.60"/><circle cx="735.9" cy="339.8" r="0.8" opacity="0.30"/><circle cx="819.8" cy="703.6" r="0.55" opacity="0.46"/><circle cx="277.1" cy="973.6" r="0.8" opacity="0.34"/><circle cx="117.3" cy="970.8" r="0.55" opacity="0.54"/><circle cx="1232.6" cy="647.7" r="0.55" opacity="0.56"/><circle cx="978.0" cy="522.3" r="1.1" opacity="0.76"/><circle cx="756.3" cy="813.4" r="0.8" opacity="0.26"/><circle cx="1553.5" cy="567.8" r="1.1" opacity="0.81"/><circle cx="464.4" cy="889.8" r="0.55" opacity="0.82"/><circle cx="1452.8" cy="926.5" r="0.55" opacity="0.69"/><circle cx="638.1" cy="923.0" r="0.8" opacity="0.39"/><circle cx="948.2" cy="778.9" r="0.55" opacity="0.35"/><circle cx="1210.7" cy="730.8" r="0.8" opacity="0.51"/><circle cx="845.5" cy="363.9" r="0.8" opacity="0.59"/><circle cx="1163.5" cy="488.0" r="0.55" opacity="0.61"/><circle cx="106.7" cy="957.3" r="0.8" opacity="0.37"/><circle cx="158.5" cy="477.1" r="0.55" opacity="0.48"/><circle cx="1430.0" cy="408.4" r="0.55" opacity="0.83"/><circle cx="1179.5" cy="913.5" r="0.8" opacity="0.78"/><circle cx="1071.5" cy="796.7" r="0.8" opacity="0.35"/><circle cx="1306.2" cy="621.2" r="0.55" opacity="0.62"/><circle cx="311.7" cy="974.4" r="0.8" opacity="0.40"/><circle cx="231.4" cy="154.8" r="0.8" opacity="0.48"/><circle cx="644.8" cy="210.0" r="0.8" opacity="0.80"/><circle cx="1015.6" cy="911.2" r="0.55" opacity="0.59"/><circle cx="1137.2" cy="952.4" r="0.8" opacity="0.41"/><circle cx="794.2" cy="743.1" r="0.55" opacity="0.38"/><circle cx="1490.8" cy="476.6" r="0.55" opacity="0.31"/><circle cx="1041.1" cy="697.2" r="0.8" opacity="0.41"/><circle cx="1169.9" cy="359.0" r="0.8" opacity="0.32"/><circle cx="261.9" cy="900.0" r="1.1" opacity="0.25"/><circle cx="1514.8" cy="609.3" r="0.55" opacity="0.52"/><circle cx="812.5" cy="906.8" r="0.55" opacity="0.75"/></g></svg>